<svg id="Capa_1" data-name="Capa 1" xmlns="http://www.w3.org/2000/svg" viewBox="0 0 1128 926"><defs><style>.cls-1{fill:#005d63;}</style></defs><path class="cls-1" d="M495.83,747.36v17.47a8.79,8.79,0,0,1-1.14,4.5,7.53,7.53,0,0,1-3.17,2.95,10.46,10.46,0,0,1-4.71,1,9.27,9.27,0,0,1-6.47-2.21,8.08,8.08,0,0,1-2.53-6.11V747.36H480v17.31a6.62,6.62,0,0,0,1.85,5,7.88,7.88,0,0,0,10,0,6.64,6.64,0,0,0,1.83-5V747.36Z"/><path class="cls-1" d="M503.37,753.93l.07,3.26a7.48,7.48,0,0,1,2.68-2.68,6.87,6.87,0,0,1,3.53-.93,5.69,5.69,0,0,1,4.55,1.73,7.71,7.71,0,0,1,1.51,5.16V773h-2.09V760.46a5.8,5.8,0,0,0-1.08-3.8,4.24,4.24,0,0,0-3.4-1.25,5.33,5.33,0,0,0-3.45,1.22,7.16,7.16,0,0,0-2.23,3.3v13h-2.09v-19Z"/><path class="cls-1" d="M545.19,763.64a11.42,11.42,0,0,1-2,7.06,6.27,6.27,0,0,1-5.27,2.61,7.06,7.06,0,0,1-6-2.75v9.71h-2.09V753.93h2l.11,2.69a6.77,6.77,0,0,1,6-3,6.32,6.32,0,0,1,5.35,2.59,11.73,11.73,0,0,1,1.94,7.17Zm-2.11-.37a9.83,9.83,0,0,0-1.49-5.75,4.82,4.82,0,0,0-4.17-2.11,5.83,5.83,0,0,0-3.32.93,5.91,5.91,0,0,0-2.13,2.71v9.12a5.66,5.66,0,0,0,2.17,2.5,6.24,6.24,0,0,0,3.32.86,4.78,4.78,0,0,0,4.14-2.12A10.65,10.65,0,0,0,543.08,763.27Z"/><path class="cls-1" d="M561.86,773a9.92,9.92,0,0,1-.41-2.65,7.35,7.35,0,0,1-2.82,2.22,8.65,8.65,0,0,1-3.63.79,6.37,6.37,0,0,1-4.44-1.53,5,5,0,0,1-1.69-3.87,5.1,5.1,0,0,1,2.31-4.4,11.17,11.17,0,0,1,6.44-1.61h3.81v-2.16a4.16,4.16,0,0,0-1.25-3.21,5.2,5.2,0,0,0-3.67-1.17,5.74,5.74,0,0,0-3.64,1.12,3.36,3.36,0,0,0-1.44,2.71l-2.11,0a4.92,4.92,0,0,1,2.11-3.93,8.19,8.19,0,0,1,5.19-1.66,7.43,7.43,0,0,1,5,1.59,5.74,5.74,0,0,1,1.89,4.44v9a11.07,11.07,0,0,0,.58,4.13V773Zm-6.61-1.51a7.08,7.08,0,0,0,3.77-1,6,6,0,0,0,2.41-2.72v-4.19h-3.76a9.41,9.41,0,0,0-4.92,1.16,3.56,3.56,0,0,0-.59,5.72A4.49,4.49,0,0,0,555.25,771.44Z"/><path class="cls-1" d="M577.92,755.73a8,8,0,0,0-1.42-.13,5.16,5.16,0,0,0-3.33,1.1,6,6,0,0,0-1.94,3.19V773h-2.1v-19h2.06l0,3a5.59,5.59,0,0,1,5.36-3.38,3.53,3.53,0,0,1,1.39.23Z"/><path class="cls-1" d="M592.55,773a9.92,9.92,0,0,1-.41-2.65,7.35,7.35,0,0,1-2.82,2.22,8.65,8.65,0,0,1-3.63.79,6.37,6.37,0,0,1-4.44-1.53,5,5,0,0,1-1.69-3.87,5.1,5.1,0,0,1,2.31-4.4,11.17,11.17,0,0,1,6.44-1.61h3.82v-2.16a4.17,4.17,0,0,0-1.26-3.21,5.2,5.2,0,0,0-3.67-1.17,5.76,5.76,0,0,0-3.64,1.12,3.36,3.36,0,0,0-1.44,2.71l-2.11,0a4.92,4.92,0,0,1,2.11-3.93,8.19,8.19,0,0,1,5.19-1.66,7.43,7.43,0,0,1,5,1.59,5.74,5.74,0,0,1,1.89,4.44v9a11.07,11.07,0,0,0,.58,4.13V773Zm-6.61-1.51a7.08,7.08,0,0,0,3.77-1,6.05,6.05,0,0,0,2.42-2.72v-4.19h-3.77a9.46,9.46,0,0,0-4.92,1.16,3.56,3.56,0,0,0-.59,5.72A4.49,4.49,0,0,0,585.94,771.44Z"/><path class="cls-1" d="M603.23,746.17h2.55l-4.06,4.92h-1.84ZM602.15,773H600v-19h2.11Z"/><path class="cls-1" d="M619.23,768.12a3,3,0,0,0-1.26-2.51,9.57,9.57,0,0,0-3.78-1.49,17.31,17.31,0,0,1-3.93-1.23,5.22,5.22,0,0,1-2.08-1.7,4.2,4.2,0,0,1-.67-2.42,4.51,4.51,0,0,1,1.88-3.72,7.58,7.58,0,0,1,4.81-1.47,7.82,7.82,0,0,1,5.11,1.58,5,5,0,0,1,1.92,4.1h-2.1a3.42,3.42,0,0,0-1.4-2.78,5.55,5.55,0,0,0-3.53-1.1,5.47,5.47,0,0,0-3.33.92,2.82,2.82,0,0,0-1.25,2.4,2.57,2.57,0,0,0,1,2.2,11,11,0,0,0,3.82,1.44,17.39,17.39,0,0,1,4.14,1.39,5.32,5.32,0,0,1,2,1.77,4.5,4.5,0,0,1,.67,2.51,4.56,4.56,0,0,1-1.94,3.85,8.26,8.26,0,0,1-5.07,1.45,8.54,8.54,0,0,1-5.39-1.61,5,5,0,0,1-2.07-4.07H609a3.63,3.63,0,0,0,1.56,2.87,6.32,6.32,0,0,0,3.79,1,5.94,5.94,0,0,0,3.55-1A2.9,2.9,0,0,0,619.23,768.12Z"/><path class="cls-1" d="M624.91,763.16a11.19,11.19,0,0,1,1.06-4.94,8,8,0,0,1,7.41-4.64,7.81,7.81,0,0,1,6.15,2.67,10.24,10.24,0,0,1,2.36,7v.44a11.43,11.43,0,0,1-1.06,5,8,8,0,0,1-3,3.4,8.19,8.19,0,0,1-4.41,1.2,7.84,7.84,0,0,1-6.15-2.67,10.26,10.26,0,0,1-2.36-7.06Zm2.11.58a8.66,8.66,0,0,0,1.76,5.6,6,6,0,0,0,9.25,0,8.89,8.89,0,0,0,1.77-5.77v-.41a9.68,9.68,0,0,0-.81-4,6.55,6.55,0,0,0-2.27-2.8,5.79,5.79,0,0,0-3.34-1,5.64,5.64,0,0,0-4.59,2.2,9,9,0,0,0-1.77,5.78Z"/><path class="cls-1" d="M670.28,763.64a11.49,11.49,0,0,1-2,7.06,6.27,6.27,0,0,1-5.27,2.61,7,7,0,0,1-6-2.75v9.71H655V753.93h1.95l.1,2.69a6.78,6.78,0,0,1,6-3,6.32,6.32,0,0,1,5.36,2.59,11.73,11.73,0,0,1,1.94,7.17Zm-2.11-.37a9.76,9.76,0,0,0-1.5-5.75,4.79,4.79,0,0,0-4.16-2.11,5.55,5.55,0,0,0-5.45,3.64v9.12a5.58,5.58,0,0,0,2.16,2.5,6.29,6.29,0,0,0,3.32.86,4.78,4.78,0,0,0,4.14-2.12A10.64,10.64,0,0,0,668.17,763.27Z"/><path class="cls-1" d="M673.78,763.16a11.19,11.19,0,0,1,1.06-4.94,8,8,0,0,1,7.41-4.64,7.81,7.81,0,0,1,6.15,2.67,10.24,10.24,0,0,1,2.36,7v.44a11.29,11.29,0,0,1-1.07,5,8,8,0,0,1-3,3.4,8.2,8.2,0,0,1-4.42,1.2,7.82,7.82,0,0,1-6.14-2.67,10.21,10.21,0,0,1-2.36-7.06Zm2.11.58a8.61,8.61,0,0,0,1.76,5.6,6,6,0,0,0,9.25,0,8.89,8.89,0,0,0,1.76-5.77v-.41a9.68,9.68,0,0,0-.8-4,6.55,6.55,0,0,0-2.27-2.8,5.81,5.81,0,0,0-3.34-1,5.61,5.61,0,0,0-4.59,2.2,9,9,0,0,0-1.77,5.78Z"/><path class="cls-1" d="M703.89,755.73a8.09,8.09,0,0,0-1.43-.13,5.16,5.16,0,0,0-3.33,1.1,6.07,6.07,0,0,0-1.94,3.19V773H695.1v-19h2l0,3a5.59,5.59,0,0,1,5.36-3.38,3.49,3.49,0,0,1,1.39.23Z"/><path class="cls-1" d="M715.12,763.27a11.46,11.46,0,0,1,2-7.06,6.38,6.38,0,0,1,5.37-2.63,6.64,6.64,0,0,1,5.87,3V746h2.09v27h-2l-.09-2.53a6.78,6.78,0,0,1-5.94,2.89,6.36,6.36,0,0,1-5.3-2.65,11.54,11.54,0,0,1-2-7.15Zm2.13.37a9.88,9.88,0,0,0,1.46,5.74,4.71,4.71,0,0,0,4.11,2.1,5.67,5.67,0,0,0,5.52-3.43v-8.93a5.63,5.63,0,0,0-5.49-3.71,4.8,4.8,0,0,0-4.13,2.08A10.66,10.66,0,0,0,717.25,763.64Z"/><path class="cls-1" d="M743.33,773.31a8.21,8.21,0,0,1-4.38-1.2,8.12,8.12,0,0,1-3.05-3.33,10.33,10.33,0,0,1-1.09-4.79v-.76a11.22,11.22,0,0,1,1.06-4.94,8.54,8.54,0,0,1,3-3.45,7.32,7.32,0,0,1,4.12-1.26,6.86,6.86,0,0,1,5.49,2.37,9.6,9.6,0,0,1,2,6.46v1.17H736.9V764a8,8,0,0,0,1.85,5.39,5.93,5.93,0,0,0,4.67,2.15,6.22,6.22,0,0,0,5.33-2.58l1.31,1A7.66,7.66,0,0,1,743.33,773.31ZM743,755.38a5.24,5.24,0,0,0-4,1.74,8,8,0,0,0-2,4.67h11.41v-.23a7,7,0,0,0-1.57-4.46A4.83,4.83,0,0,0,743,755.38Z"/><path class="cls-1" d="M766,768.12a3,3,0,0,0-1.26-2.51,9.63,9.63,0,0,0-3.79-1.49,17.31,17.31,0,0,1-3.93-1.23,5.19,5.19,0,0,1-2.07-1.7,4.2,4.2,0,0,1-.68-2.42,4.54,4.54,0,0,1,1.88-3.72,7.61,7.61,0,0,1,4.82-1.47,7.79,7.79,0,0,1,5.1,1.58,5,5,0,0,1,1.93,4.1h-2.11a3.42,3.42,0,0,0-1.4-2.78,6.33,6.33,0,0,0-6.85-.18,2.83,2.83,0,0,0-1.26,2.4,2.58,2.58,0,0,0,1,2.2,10.87,10.87,0,0,0,3.81,1.44,17.34,17.34,0,0,1,4.15,1.39,5.4,5.4,0,0,1,2,1.77,4.9,4.9,0,0,1-1.28,6.36,8.22,8.22,0,0,1-5.07,1.45,8.56,8.56,0,0,1-5.39-1.61,5,5,0,0,1-2.06-4.07h2.11a3.65,3.65,0,0,0,1.55,2.87,6.35,6.35,0,0,0,3.79,1,5.92,5.92,0,0,0,3.55-1A2.91,2.91,0,0,0,766,768.12Z"/><path class="cls-1" d="M779.82,771.53a5.54,5.54,0,0,0,3.69-1.24,4.39,4.39,0,0,0,1.61-3.21h2a6,6,0,0,1-1.09,3.18,6.89,6.89,0,0,1-2.67,2.24,8,8,0,0,1-3.56.81,7.34,7.34,0,0,1-5.93-2.61,10.49,10.49,0,0,1-2.19-7v-.63a11.84,11.84,0,0,1,1-5,7.54,7.54,0,0,1,2.82-3.34,7.83,7.83,0,0,1,4.3-1.18,7.33,7.33,0,0,1,5.16,1.87,6.81,6.81,0,0,1,2.17,4.9h-2a5.09,5.09,0,0,0-5.31-5,5.24,5.24,0,0,0-4.42,2,9.31,9.31,0,0,0-1.58,5.77v.61a9.09,9.09,0,0,0,1.58,5.68A5.27,5.27,0,0,0,779.82,771.53Z"/><path class="cls-1" d="M803.57,770.55q-1.89,2.76-6.06,2.76a5.86,5.86,0,0,1-4.62-1.77,7.7,7.7,0,0,1-1.62-5.23V753.93h2.09v12.12q0,5.43,4.39,5.43,4.57,0,5.79-3.78V753.93h2.11v19h-2Z"/><path class="cls-1" d="M826.42,763.64a11.49,11.49,0,0,1-2,7.06,6.31,6.31,0,0,1-5.3,2.61,6.85,6.85,0,0,1-6-3l-.09,2.6h-2V746h2.09v10.74a6.6,6.6,0,0,1,5.94-3.11,6.32,6.32,0,0,1,5.33,2.58,11.54,11.54,0,0,1,2,7.16Zm-2.11-.37a9.92,9.92,0,0,0-1.45-5.81,4.77,4.77,0,0,0-4.12-2.05,5.83,5.83,0,0,0-3.43,1,6.15,6.15,0,0,0-2.12,2.91v8.58a5.64,5.64,0,0,0,5.59,3.59,4.74,4.74,0,0,0,4.07-2.06C823.83,768.05,824.31,766,824.31,763.27Z"/><path class="cls-1" d="M839.85,755.73a8,8,0,0,0-1.42-.13,5.16,5.16,0,0,0-3.33,1.1,6,6,0,0,0-1.94,3.19V773h-2.1v-19h2.06l0,3a5.59,5.59,0,0,1,5.36-3.38,3.53,3.53,0,0,1,1.39.23Z"/><path class="cls-1" d="M843.05,748.44a1.38,1.38,0,0,1,.39-1,1.36,1.36,0,0,1,1-.41,1.4,1.4,0,0,1,1.07.41,1.48,1.48,0,0,1,0,2,1.43,1.43,0,0,1-1.07.4,1.35,1.35,0,0,1-1.44-1.4ZM845.53,773h-2.11v-19h2.11Z"/><path class="cls-1" d="M860,755.73a8,8,0,0,0-1.42-.13,5.16,5.16,0,0,0-3.33,1.1,6,6,0,0,0-1.94,3.19V773h-2.1v-19h2.06l0,3a5.59,5.59,0,0,1,5.36-3.38,3.53,3.53,0,0,1,1.39.23Z"/><path class="cls-1" d="M266.15,719a82.67,82.67,0,0,1,1.88-8.76q1.44-5.6,3.69-12a133.69,133.69,0,0,1,12.17-25.94,3.56,3.56,0,0,1,2.49-1.81,27.68,27.68,0,0,1,3.78-.3,11,11,0,0,1,2.94.37,5.85,5.85,0,0,1,2,.95,1.73,1.73,0,0,1,.49,2.59q-8.83,13.35-15.44,32.54a81,81,0,0,0-3,10.19c-.32,1.91-.56,3.21-.71,3.91a9.6,9.6,0,0,0-.22,1.83c0,1.08.69,1.61,2.06,1.61a13.12,13.12,0,0,0,4.59-1,35.15,35.15,0,0,0,5.47-2.69,53.81,53.81,0,0,0,6.08-4.22,66.37,66.37,0,0,0,11.9-12.32,51.47,51.47,0,0,0,4.69-7.62,38.26,38.26,0,0,0,4.45-17.34q0-11.73-9.53-15.59a18.57,18.57,0,0,0-6.91-1.32,33.79,33.79,0,0,0-6.09.47,30.81,30.81,0,0,0-4.78,1.29,23.92,23.92,0,0,0-7.82,4.45,4,4,0,0,1-2,.49,5.54,5.54,0,0,1-2.52-.69,9.82,9.82,0,0,1-2.42-1.71q-2.44-2.38-1.95-4.59.52-3.12,9.38-5.42a59.92,59.92,0,0,1,14.95-1.91,42.25,42.25,0,0,1,13.56,2.05,27.19,27.19,0,0,1,9.79,5.52q7,6.55,7,17.54,0,14.57-10.07,28.1a62.24,62.24,0,0,1-22,19.05Q285.89,731,279,731a14.33,14.33,0,0,1-9.33-3.17A9.1,9.1,0,0,1,266.15,719Z"/><path class="cls-1" d="M365.67,717.54c0,3,1.06,4.49,3.18,4.49a8.45,8.45,0,0,0,3.64-.68,5.8,5.8,0,0,1,1.93-.68c.68,0,1,.35,1,1.07q0,4.2-4.39,7.23a10.3,10.3,0,0,1-9.48,1.57,8,8,0,0,1-4.69-4.84,9.73,9.73,0,0,1-.73-3.47,32.13,32.13,0,0,1,.48-5.37q-4.53,9.27-11.28,12.8a12.45,12.45,0,0,1-5.72,1.36,10.56,10.56,0,0,1-5.25-1.24,11.62,11.62,0,0,1-3.79-3.45q-3.16-4.59-2.88-11.53a36.28,36.28,0,0,1,5.13-17A39.79,39.79,0,0,1,344.08,685q6.8-5,12.7-5t9.53,5.42c2.25-3.62,4.23-5.42,6-5.42a7.15,7.15,0,0,1,4.2,1q2.68,2,1.91,3.42-12.27,25.13-12.61,31.27A18.32,18.32,0,0,0,365.67,717.54Zm-27.11.19q0,5.87,3.76,5.87,2.88,0,7.08-4.89,6.17-7.19,10.9-19.35a68.74,68.74,0,0,0,2.54-7.62,5.71,5.71,0,0,0-2.79-4.88,5,5,0,0,0-2.61-.54,8.64,8.64,0,0,0-4.05,1.27,19.57,19.57,0,0,0-4.5,3.47,29.63,29.63,0,0,0-4.05,5.2,41.66,41.66,0,0,0-6.28,21.47Z"/><path class="cls-1" d="M417.36,689.2q-1.51,0-4.3,2.91c-1.85,1.94-3.46,3.7-4.83,5.3l-4.16,5-8,10.21q-2.83,5.39-4.44,8.95L389,727.21a14.09,14.09,0,0,1-1.79,3,2.58,2.58,0,0,1-2.05.85,6.83,6.83,0,0,1-2.49-.46,7.41,7.41,0,0,1-2.08-1.2,4.48,4.48,0,0,1-1.85-3.42,8.67,8.67,0,0,1,1.07-2.88l1.86-4q.89-1.76,2.05-4.49l2.74-6.7q5.76-14.4,5.76-18.61a3.85,3.85,0,0,0-1.46-3.32l-1-.69a1.33,1.33,0,0,1-.49-1.19,2.51,2.51,0,0,1,.66-1.64,6,6,0,0,1,1.74-1.37,9.57,9.57,0,0,1,4.42-1.12,9.47,9.47,0,0,1,3.44.49,6,6,0,0,1,2.05,1.31,5,5,0,0,1,1.81,3.57,15.5,15.5,0,0,1-.46,3.74,35.24,35.24,0,0,1-1.18,3.81c-.47,1.29-1,2.55-1.49,3.79s-1,2.31-1.41,3.22l-1,2.1c-.26.52-.33.69-.2.49q5.43-7.51,7.14-9.67l3.42-4.11a33.39,33.39,0,0,1,5.91-5.81c2.9-2,5.18-2.93,6.84-2.93a12.22,12.22,0,0,1,4.2.63,9.09,9.09,0,0,1,3,1.81,8.29,8.29,0,0,1,2.69,6.35,20.87,20.87,0,0,1-1.76,8.06c-1.17,2.8-2.19,5.08-3,6.82s-1.69,3.51-2.47,5.3q-3.66,8.16-3.67,11.87c0,1.11.88,1.66,2.64,1.66a7.91,7.91,0,0,0,3.74-.88,7,7,0,0,1,2.17-.88.91.91,0,0,1,1,1q0,4.35-4.45,7.28a10,10,0,0,1-5.47,2,13.73,13.73,0,0,1-4.13-.53,7.82,7.82,0,0,1-2.9-1.71,9.21,9.21,0,0,1-2.89-7.23q0-5.67,3.57-14.17c1.73-3.88,3-6.53,3.67-8l1.66-3.47a12.31,12.31,0,0,0,1.51-4.93C420.05,689.8,419.15,689.2,417.36,689.2Z"/><path class="cls-1" d="M466.71,717.73c.94,0,1.42.64,1.42,1.91a5.73,5.73,0,0,1-1,3.13,13.66,13.66,0,0,1-5.28,5.37,16.61,16.61,0,0,1-9,2.88q-7.86,0-10-7-2.49-8.36,7.47-35.42c-3.74-.33-5.78-1-6.1-2a2.91,2.91,0,0,1-.15-1,2.24,2.24,0,0,1,.46-1.2,7.25,7.25,0,0,1,1.2-1.32,5.45,5.45,0,0,1,3.47-1.41h3.86q5.28-12.36,7.52-14.07a4,4,0,0,1,2.4-.79,6.07,6.07,0,0,1,2.2.35,4.87,4.87,0,0,1,1.56,1,4.42,4.42,0,0,1,1.56,3.28,5.43,5.43,0,0,1-.58,2.24l-3.62,7.87h1.17c2,0,3.65,0,4.89-.05l2.78,0c.62,0,1.4-.05,2.32-.05s1.4.34,1.4,1q0,6.45-15.25,6.45H461l-3.32,8.6q-5.62,15.24-5.62,21.35a4.07,4.07,0,0,0,.78,2.66,3.64,3.64,0,0,0,2.93,1,10,10,0,0,0,3.91-.73,16.45,16.45,0,0,0,3.08-1.64c.88-.6,1.64-1.14,2.27-1.63A2.9,2.9,0,0,1,466.71,717.73Z"/><path class="cls-1" d="M511.9,717.54c0,3,1.06,4.49,3.18,4.49a8.45,8.45,0,0,0,3.64-.68,5.8,5.8,0,0,1,1.93-.68c.68,0,1,.35,1,1.07q0,4.2-4.39,7.23a10.3,10.3,0,0,1-9.48,1.57,8,8,0,0,1-4.69-4.84,9.73,9.73,0,0,1-.73-3.47,32.13,32.13,0,0,1,.48-5.37q-4.55,9.27-11.28,12.8a12.45,12.45,0,0,1-5.72,1.36,10.56,10.56,0,0,1-5.25-1.24,11.62,11.62,0,0,1-3.79-3.45q-3.17-4.59-2.88-11.53a36.28,36.28,0,0,1,5.13-17A39.79,39.79,0,0,1,490.31,685q6.78-5,12.7-5t9.53,5.42c2.25-3.62,4.23-5.42,6-5.42a7.19,7.19,0,0,1,4.2,1q2.68,2,1.91,3.42Q512.34,709.54,512,715.68A15.82,15.82,0,0,0,511.9,717.54Zm-27.11.19q0,5.87,3.76,5.87,2.88,0,7.08-4.89,6.17-7.19,10.9-19.35a70.89,70.89,0,0,0,2.54-7.62,5.71,5.71,0,0,0-2.79-4.88,5,5,0,0,0-2.61-.54,8.71,8.71,0,0,0-4.06,1.27,19.74,19.74,0,0,0-4.49,3.47,30.15,30.15,0,0,0-4.06,5.2,41.42,41.42,0,0,0-3.29,6.52A40.31,40.31,0,0,0,484.79,717.73Z"/><path class="cls-1" d="M528.56,725.8a9.15,9.15,0,0,1-.73-3.81,20,20,0,0,1,.68-4.87,51.12,51.12,0,0,1,1.76-5.44q1.08-2.79,2.4-5.67l2.49-5.67q4.83-11.19,3.57-13.19a6.33,6.33,0,0,0-2.25-1.86,1.28,1.28,0,0,1-.54-1.19,2.44,2.44,0,0,1,.71-1.64,6.31,6.31,0,0,1,1.88-1.37,10.83,10.83,0,0,1,4.74-1.12,10.06,10.06,0,0,1,3.64.51,6.64,6.64,0,0,1,2.07,1.29,5.4,5.4,0,0,1,1.57,3.91,17.78,17.78,0,0,1-.88,5.18c-.59,1.93-1.32,3.94-2.2,6.06s-1.84,4.29-2.88,6.5l-2.88,6.4q-3.09,7.08-3.08,9.38,0,4.5,3.17,4.5,8.16,0,15.3-9.68a37,37,0,0,0,6-12.21,22.53,22.53,0,0,0,.83-5.69c0-1.71-.06-3.14-.17-4.28a17,17,0,0,0-.57-3,9.89,9.89,0,0,0-2.15-4c-.68-.85-.37-1.84.93-3A9.28,9.28,0,0,1,568,680a5.43,5.43,0,0,1,4.3,2.29c1.56,1.83,2.34,4.44,2.34,7.85a33.74,33.74,0,0,1-1.51,10,44.64,44.64,0,0,1-4.15,9.43,49.34,49.34,0,0,1-6.23,8.43,47,47,0,0,1-7.75,6.79Q546.15,731,537.26,731,530.86,731,528.56,725.8Z"/><path class="cls-1" d="M580,713.44a31.62,31.62,0,0,1,1.42-8.14,38.66,38.66,0,0,1,3.27-7.52,43.69,43.69,0,0,1,4.81-6.89,37.78,37.78,0,0,1,6-5.7q7-5.22,14.12-5.22,8.35,0,11.14,6.89a13.85,13.85,0,0,1,.93,5.54,15.26,15.26,0,0,1-1.23,5.91,17.17,17.17,0,0,1-3.24,4.94,23.72,23.72,0,0,1-4.94,4,33.49,33.49,0,0,1-6.23,3,45.9,45.9,0,0,1-14.85,2.54,9.67,9.67,0,0,0-.25,2,13.23,13.23,0,0,0,.3,3.06,8.83,8.83,0,0,0,1.17,3,5.59,5.59,0,0,0,5.08,2.93,20.68,20.68,0,0,0,11-3.32,15.62,15.62,0,0,0,3.11-2.32,3.26,3.26,0,0,1,2.07-1.2,1.85,1.85,0,0,1,1.54,1,4.36,4.36,0,0,1,.66,2.37,7.15,7.15,0,0,1-1.47,4.5Q608.25,731,596.08,731q-7.17,0-11.53-4.3Q579.67,721.85,580,713.44Zm28.53-27q-5.13,0-9.87,7a53.1,53.1,0,0,0-6.45,14.37,23.8,23.8,0,0,0,14.17-6.45q5.52-5.28,5.52-10.12T608.49,686.47Z"/><path class="cls-1" d="M661.89,689.2q-1.51,0-4.3,2.91c-1.85,1.94-3.46,3.7-4.83,5.3l-4.16,5-8,10.21q-2.83,5.39-4.44,8.95l-2.64,5.66a14.09,14.09,0,0,1-1.79,3,2.58,2.58,0,0,1-2.05.85,6.83,6.83,0,0,1-2.49-.46,7.41,7.41,0,0,1-2.08-1.2,4.48,4.48,0,0,1-1.85-3.42,8.67,8.67,0,0,1,1.07-2.88l1.86-4q.89-1.76,2.05-4.49l2.74-6.7q5.76-14.4,5.76-18.61a3.85,3.85,0,0,0-1.46-3.32l-1-.69a1.33,1.33,0,0,1-.49-1.19,2.51,2.51,0,0,1,.66-1.64,6,6,0,0,1,1.74-1.37,9.57,9.57,0,0,1,4.42-1.12,9.47,9.47,0,0,1,3.44.49,5.87,5.87,0,0,1,2.05,1.31,5,5,0,0,1,1.81,3.57,15.5,15.5,0,0,1-.46,3.74,35.24,35.24,0,0,1-1.18,3.81c-.47,1.29-1,2.55-1.49,3.79s-1,2.31-1.41,3.22l-1,2.1c-.26.52-.33.69-.2.49q5.43-7.51,7.14-9.67l3.42-4.11a33.39,33.39,0,0,1,5.91-5.81c2.9-2,5.18-2.93,6.84-2.93a12.22,12.22,0,0,1,4.2.63,9.09,9.09,0,0,1,3,1.81,8.29,8.29,0,0,1,2.69,6.35,20.87,20.87,0,0,1-1.76,8.06c-1.17,2.8-2.19,5.08-3,6.82s-1.69,3.51-2.47,5.3q-3.66,8.16-3.67,11.87c0,1.11.88,1.66,2.64,1.66a7.91,7.91,0,0,0,3.74-.88,7,7,0,0,1,2.17-.88.91.91,0,0,1,1,1q0,4.35-4.45,7.28a10,10,0,0,1-5.47,2,13.77,13.77,0,0,1-4.13-.53,7.82,7.82,0,0,1-2.9-1.71,9.21,9.21,0,0,1-2.89-7.23q0-5.67,3.57-14.17c1.73-3.88,3-6.53,3.67-8l1.66-3.47a12.31,12.31,0,0,0,1.51-4.93C664.58,689.8,663.69,689.2,661.89,689.2Z"/><path class="cls-1" d="M711.24,717.73c.94,0,1.42.64,1.42,1.91a5.73,5.73,0,0,1-1,3.13,13.66,13.66,0,0,1-5.28,5.37,16.61,16.61,0,0,1-9,2.88q-7.86,0-10-7-2.49-8.36,7.47-35.42c-3.74-.33-5.78-1-6.1-2a2.91,2.91,0,0,1-.15-1,2.24,2.24,0,0,1,.46-1.2,7.25,7.25,0,0,1,1.2-1.32,5.45,5.45,0,0,1,3.47-1.41h3.86q5.28-12.36,7.52-14.07a4,4,0,0,1,2.4-.79,6.07,6.07,0,0,1,2.2.35,4.87,4.87,0,0,1,1.56,1,4.42,4.42,0,0,1,1.56,3.28,5.43,5.43,0,0,1-.58,2.24l-3.62,7.87h1.17c2,0,3.65,0,4.89-.05l2.78,0c.62,0,1.4-.05,2.32-.05s1.4.34,1.4,1q0,6.45-15.25,6.45h-.39l-3.32,8.6q-5.62,15.24-5.62,21.35a4.07,4.07,0,0,0,.78,2.66,3.64,3.64,0,0,0,2.93,1,10,10,0,0,0,3.91-.73,16.45,16.45,0,0,0,3.08-1.64c.88-.6,1.64-1.14,2.27-1.63A2.9,2.9,0,0,1,711.24,717.73Z"/><path class="cls-1" d="M764.3,720.91a1,1,0,0,1,1.12,1.12q0,4.26-4.2,7.14a11.81,11.81,0,0,1-6.64,1.85,7,7,0,0,1-4.79-1.46,8.29,8.29,0,0,1-3-6.45q0-4.85,4.05-14.81-7.51,10.17-10.55,13.51A52.36,52.36,0,0,1,735,727q-4.87,4-8.84,4-6.06,0-8.06-5.22a10.82,10.82,0,0,1-.59-3.69,17.66,17.66,0,0,1,.71-4.64,48.52,48.52,0,0,1,1.83-5.35q1.13-2.79,2.45-5.72l2.63-5.86q5.08-11.29,3.77-13.39a6.27,6.27,0,0,0-2.2-1.86,1.25,1.25,0,0,1-.59-1.19,2.44,2.44,0,0,1,.71-1.64,6.44,6.44,0,0,1,1.83-1.37,11.17,11.17,0,0,1,4.79-1.12,10,10,0,0,1,3.64.51,6.1,6.1,0,0,1,2,1.29,5,5,0,0,1,1.61,3.57,17,17,0,0,1-.64,4.37q-.63,2.43-1.66,5.26t-2.24,5.86q-3.37,7.92-4.55,10.46l-1.81,3.76a14,14,0,0,0-1.51,4.74,3.24,3.24,0,0,0,.44,1.93,1.92,1.92,0,0,0,1.59.56A4.82,4.82,0,0,0,733,721.2a25.31,25.31,0,0,0,3.32-2.88,56.2,56.2,0,0,0,3.76-4.18c1.31-1.58,2.58-3.21,3.82-4.91a85.46,85.46,0,0,0,5.37-8q10.35-18.32,11-19.15c1-1.4,2.11-2.1,3.2-2.1a10.2,10.2,0,0,1,2.86.36,6.67,6.67,0,0,1,2.1,1q2.06,1.51,1.32,3Q757.9,709.28,757,715.68q-.24,2.21-.24,3c0,2.48.74,3.71,2.24,3.71a7.16,7.16,0,0,0,3.47-.75A5,5,0,0,1,764.3,720.91Z"/><path class="cls-1" d="M774.27,729.36a6.35,6.35,0,0,1-1.57-1.63,3.52,3.52,0,0,1-.63-1.57,4,4,0,0,1,.27-1.61c.21-.63.49-1.41.85-2.32q10-24.53,10-32.93a4,4,0,0,0-1.62-3.32l-1-.69a1.45,1.45,0,0,1-.47-1.19,2.5,2.5,0,0,1,.61-1.64,5.9,5.9,0,0,1,1.67-1.37A9,9,0,0,1,786.7,680a9.72,9.72,0,0,1,3.47.49,6.39,6.39,0,0,1,2.12,1.31,5.21,5.21,0,0,1,1.88,3.72,16.41,16.41,0,0,1-.44,4c-.31,1.33-.67,2.64-1.09,3.93s-.85,2.51-1.27,3.66a23.86,23.86,0,0,0-.84,2.57,7,7,0,0,0-.29,2.15,4.17,4.17,0,0,0,1.42-2l1.9-3.61Q799.92,684.71,806,681a8.31,8.31,0,0,1,4.23-1,5.05,5.05,0,0,1,4,1.73,6.06,6.06,0,0,1,1.59,3.84,12.42,12.42,0,0,1-.29,3.49,10,10,0,0,1-1.1,2.61q-1.62,2.75-3.91,2.74a1.79,1.79,0,0,1-1.17-.44l-1.08-.93a4.81,4.81,0,0,0-3.1-1.41c-1,0-2.2.65-3.62,1.95a36.8,36.8,0,0,0-4.42,5,93.5,93.5,0,0,0-12.6,22.87l-2.15,5.67a16,16,0,0,1-1.47,3,2.15,2.15,0,0,1-1.88.9,7.07,7.07,0,0,1-2.49-.46A8.74,8.74,0,0,1,774.27,729.36Z"/><path class="cls-1" d="M852.58,717.54c0,3,1.06,4.49,3.18,4.49a8.45,8.45,0,0,0,3.64-.68,5.8,5.8,0,0,1,1.93-.68c.68,0,1,.35,1,1.07q0,4.2-4.39,7.23a10.3,10.3,0,0,1-9.48,1.57,8,8,0,0,1-4.69-4.84,9.73,9.73,0,0,1-.73-3.47,32.13,32.13,0,0,1,.48-5.37q-4.53,9.27-11.28,12.8a12.45,12.45,0,0,1-5.72,1.36,10.56,10.56,0,0,1-5.25-1.24,11.62,11.62,0,0,1-3.79-3.45q-3.16-4.59-2.88-11.53a36.28,36.28,0,0,1,5.13-17A39.79,39.79,0,0,1,831,685q6.79-5,12.7-5t9.53,5.42c2.25-3.62,4.23-5.42,6-5.42a7.15,7.15,0,0,1,4.2,1q2.68,2,1.91,3.42Q853,709.54,852.68,715.68A18.32,18.32,0,0,0,852.58,717.54Zm-27.11.19q0,5.87,3.76,5.87,2.88,0,7.08-4.89,6.16-7.19,10.9-19.35a68.74,68.74,0,0,0,2.54-7.62,5.71,5.71,0,0,0-2.79-4.88,5,5,0,0,0-2.61-.54,8.64,8.64,0,0,0-4.05,1.27,19.57,19.57,0,0,0-4.5,3.47,29.63,29.63,0,0,0-4,5.2,41.66,41.66,0,0,0-6.28,21.47Z"/><path class="cls-1" d="M869.05,595.28c-2-3.09-5.75-5-9.45-5.86-4.45-1.06-9.14-1-13.53-2.32-6.32-1.87-11.9-6.49-18.49-6.69-10.07-.34-20.34,9.58-29.05,4.49-7.31-4.24-7-16.16-14.35-20.36-11.13-6.37-23.35,11.7-35.86,8.89-9.36-2.13-12-13.78-15.48-22.74A43.75,43.75,0,0,0,726,538.81c-5.75,9.66-14.83,17.28-23.57,24.19a125.86,125.86,0,0,1-17.79,12.11c-5.4,3-10.87,5.8-15.43,9.9,114.4,2.8,195.89,10,195.89,18.51,0,1-1.14,2-3.36,3h1.53c3.94.87,7.27-3.47,7.05-7.51,39.92,6.67,42.47,12.7,42.47,14.11,0,1-1.1,2.2-3.1,3.43C894.47,626,834.05,634,750.66,638.89c-1.44,1.27-2.91,2.52-4.39,3.75,86.76-4.88,149.06-13.2,165.25-23.22,3.13-1.93,4.72-4.06,4.72-6.34C916.24,610.29,916.23,603,869.05,595.28Z"/><circle class="cls-1" cx="367.72" cy="547.98" r="6.17"/><path class="cls-1" d="M317.12,494.9a3.7,3.7,0,1,0-3.71-3.7A3.7,3.7,0,0,0,317.12,494.9Z"/><path class="cls-1" d="M331.93,530.7a2.47,2.47,0,1,0-2.47-2.47A2.48,2.48,0,0,0,331.93,530.7Z"/><path class="cls-1" d="M743.08,539.52a9.26,9.26,0,1,0-9.25-9.25A9.25,9.25,0,0,0,743.08,539.52Z"/><path class="cls-1" d="M806.5,565.38a3.09,3.09,0,1,0-3.09-3.08A3.09,3.09,0,0,0,806.5,565.38Z"/><path class="cls-1" d="M797,498.56a3.71,3.71,0,1,0-3.71-3.7A3.7,3.7,0,0,0,797,498.56Z"/><path class="cls-1" d="M862.74,562.43a3.09,3.09,0,1,0-3.08-3.09A3.09,3.09,0,0,0,862.74,562.43Z"/><path class="cls-1" d="M825.32,604.91c-2.45,1-4.62,2.54-7.06,3.51-15.27,6.12-33.39-12.91-47.61-4.63-3.66,2.13-6.25,5.79-10,7.82-14.74,8.07-33.4-14-48.14-5.94-6.4,3.5-8.95,11.42-14.46,16.19l6.89-.45a1136.3,1136.3,0,0,0,138.49-10.82A15.66,15.66,0,0,0,825.32,604.91Z"/><path class="cls-1" d="M240.63,544a9.15,9.15,0,1,0-9.15-9.15A9.15,9.15,0,0,0,240.63,544Z"/><path class="cls-1" d="M216.23,560.25a5.09,5.09,0,1,0-5.08-5.09A5.09,5.09,0,0,0,216.23,560.25Z"/><path class="cls-1" d="M410.84,577.83a11.94,11.94,0,0,0-3.7-1.31,12.85,12.85,0,0,0-3.66-.1c-2.9-1.25-23.43,2.53-26.12,2.64-52,2-43-14-75-13-3.46.1-14.67,3.71-11.66,14-7-7.28-34.34-18-50.34-8-7.38,4.61,1,16,8,25-32.14,6.1-36.66,11.93-36.66,16,0,4.95,6.45,12.42,62.19,20,35.15,4.78,82.59,8.53,136.9,11-1.15-1.25-2.32-2.46-3.57-3.58-52.64-2.45-98.61-6.13-132.87-10.79C218,622,215.12,614.51,215.12,613.08c0-1.18,1.9-6.34,32.66-12.34l0,.41a10.76,10.76,0,0,0,.84,5.06,11.24,11.24,0,0,0,3.75,3.92,32.78,32.78,0,0,0,26.91,5,18.1,18.1,0,0,1,4.39-.88c2.33,0,4.5,1.11,6.64,2a34.65,34.65,0,0,0,24.2.69c.19-.84.37-1.58.49-2.27-32.91-3.16-52.16-7-52.16-11.11,0-6.1,20.55-14.46,142.37-20.55a11.48,11.48,0,0,0,3.2.2c1.36-.12,3.39-.31,4.2-1.6a2.15,2.15,0,0,0-.12-2.47A5.16,5.16,0,0,0,410.84,577.83Zm-.75,3.06-.09-.06h0Z"/><path class="cls-1" d="M780.33,379.93a223.7,223.7,0,0,0-50.92-113.77c-28-32.74-64.34-55.27-105.24-65.34a62,62,0,0,0,0-9.44c-1.44-18.24-11.16-31.88-26.68-37.44-13.79-4.94-26.49-2.13-35.76,7.9-7.13,7.71-11.31,19-12.12,30.73-5.14-.4-11,1.11-16.71,2.59-5.33,1.38-12.63,3.26-14.87,1.67a3.89,3.89,0,0,1-1.08-2.63c1.66-12,2.91-33.23-6.43-44.81a20.66,20.66,0,0,0-15.2-7.81c-17.61-1.27-30.28,9.33-33.09,27.63-2.33,15.13,3.07,33,14.67,41.83-.42,2.92-2.55,5.13-5.9,8.37l-.3.29c-27.73,15.53-54.44,38.67-75.27,65.23-23.23,29.62-37.77,61.56-42.05,92.37-3.63,26.14-4.53,62.51,11.83,87.35l.33.51.09.07,0,.32a22.74,22.74,0,0,0-19,15.42c-4.06,11.47-.49,28.6,14.16,39.15,8.94,6.43,18.91,2,26.1-4,2.93,12.52,8.34,17.74,12.14,21.41.43.41.83.81,1.21,1.19L400,539l-.78.84c-5.81,14.68-3.93,28.07,5.17,36.73A31.12,31.12,0,0,0,426,584.89a33.39,33.39,0,0,0,14.42-3.13c22.69-10.85,22.18-33.66,21.82-42.16l-9,.38c.68,16.26-5.35,28.5-16.55,33.59-8.94,4-19.65,2.62-26.06-3.48-6.26-6-7.41-15.24-3.28-26.18l.17.12c6.48-9.72,12.15-10.71,17-10.88l-.31-9A25.77,25.77,0,0,0,406,531.81l-.72-.7c-3.89-3.76-9.22-8.91-10.93-24.87l-1.17-10.92a41.56,41.56,0,0,0,18.29,5.81l.63.05.63-.13c19.23-4,21.45-23.62,23.41-40.91.1-1,.21-1.93.33-2.9a29.41,29.41,0,0,0,9.63-7.75c23.95-32.93,74-54.78,106.56-56.16,13.8-.57,24.26,2.41,29.45,8.42,3.27,3.78,4.38,9.16,3.12,15.15a30.7,30.7,0,0,1-16,20.7c-3.29,1.45-7.29,2.07-10.92,2.62a35.54,35.54,0,0,0-7.9,1.77l3.42,8.32a32.44,32.44,0,0,1,5.84-1.19c1.77-.27,3.69-.56,5.66-1a11.75,11.75,0,0,1-3.86,7.35c-15.8,15.8-23.56,36.8-31.06,57.11-1.32,3.6-2.61,7.06-3.92,10.46-6.78,19.69-18.11,39-35,47.7a56.4,56.4,0,0,0,12.18-5c12.2-6.75,22.2-18.37,28.91-33.58l.05-.12c2.18-5.34,4.25-10.94,6.25-16.36,7.16-19.4,14.57-39.46,29-53.87,5.82-5.82,6.31-11,6.66-14.75.08-.81.15-1.53.26-2.18a23.3,23.3,0,0,0,2.23-1.36l0,0A40.35,40.35,0,0,0,594,418.75c1.85-8.81,0-16.94-5.12-22.89-7.13-8.24-19.79-12.22-36.63-11.52-35.46,1.49-87.59,24.29-113.46,59.85-.11.15-.24.31-.38.47a29.25,29.25,0,0,1,3.87-9.89l-7.42-5.09c-5.24,7.63-6.49,18.72-7.71,29.45-2.1,18.6-4.23,30.2-15.69,33-16.47-1.58-27.68-15.48-37.35-30.31l-.06,0a7.5,7.5,0,0,0-1.62-2.54c-14.54-22.5-13.56-56.29-10.17-80.75,9.13-65.71,65.13-124.47,113.3-151.26l.52-.3,1.14-1.1c2.88-2.78,6.25-6,7.83-10.53.62.2,1.26.39,1.91.54l1.12-4c-13.4-3.19-19.25-26.6-17-41.34,1-6.45,5.27-21.3,23.55-20A11.81,11.81,0,0,1,503.5,155c5.29,6.56,6.95,20.92,4.45,38.43l-.07.51,0,.5c.36,4.38,2,7.64,4.89,9.68,5.65,4,13.75,1.93,22.33-.29,5.16-1.33,11-2.82,14.52-2.24a52,52,0,0,0,4.23,17l4.21-1.67c-6.71-14.91.09-38,10.23-49,6.76-7.32,15.79-9.24,26.12-5.54,16.47,5.9,20.07,21.13,20.74,29.68,1.58,19.93-3.52,44.28-19.09,52.82l-1.13,5c13.89-7.61,24.21-23.06,27.9-40.14C700.55,229.36,760,297.59,771.41,381.15c11.62,84.69-28.23,160.34-106.64,202.4l-1.34.76c-7.83,4.44-31.65,17.94-69.38,23.07-35.95,4.53-72-3.45-85.71-5.58,19.09,9.19,42.92,15.28,70,15.28,5.4,0,10.94-.24,16.59-.75l.2,0c39.51-5.35,64.51-19.52,72.72-24.17l1.21-.69c42.78-23,74.2-54.69,93.41-94.36C779.77,461.38,785.94,420.87,780.33,379.93ZM370.81,474.31s13.52,15.79,22.34,21l-6.82,8.6c-.12.15-12.1,14.8-20.3,8.9-11.06-8-13.87-20.54-10.94-28.85C356.46,480.11,360.33,473.74,370.81,474.31Z"/><path class="cls-1" d="M520.05,263.41a31,31,0,1,0,31,31A31,31,0,0,0,520.05,263.41Zm0,52.91a22,22,0,1,1,22-21.95A22,22,0,0,1,520.05,316.32Z"/><path class="cls-1" d="M470.27,454.18a20.17,20.17,0,1,0,20.16,20.16A20.19,20.19,0,0,0,470.27,454.18Zm0,31.33a11.17,11.17,0,1,1,11.16-11.17A11.18,11.18,0,0,1,470.27,485.51Z"/><circle class="cls-1" cx="563.7" cy="578.57" r="9.15" transform="translate(-97.7 1042.31) rotate(-80.78)"/><path class="cls-1" d="M657.36,628.37c1.6-.18,2.17-2.83.56-2.8-78.08,1.34-61.4-22.15-84.08-23.66-30.32-2-32,25-88,27-29.66,1.06-60-16-76-16-21.09,0-37.67,6.5-57.41,9-1.1.14-1.69,1.87-.59,2C390.26,627.19,541.55,641.49,657.36,628.37Z"/></svg>